<svg width="900" height="600" xmlns="http://www.w3.org/2000/svg"><path d="M529 519.9l5.7 1.3 4.6 3.6 2.5 5.3v5.8l-2.5 5.3-4.6 3.6-5.7 1.3-5.7-1.3-4.6-3.6-2.5-5.3v-5.8l2.5-5.3 4.6-3.6zM805 423l4.8 1.1 3.8 3 2.1 4.5v4.8l-2.1 4.5-3.8 3-4.8 1.1-4.8-1.1-3.8-3-2.1-4.5v-4.8l2.1-4.5 3.8-3zM367 508l3.5.8 2.8 2.2 1.5 3.2v3.6l-1.5 3.2-2.8 2.2-3.5.8-3.5-.8-2.8-2.2-1.5-3.2v-3.6l1.5-3.2 2.8-2.2zM41 277l4.3 1 3.5 2.8 1.9 4v4.4l-1.9 4-3.5 2.8-4.3 1-4.3-1-3.5-2.8-1.9-4v-4.4l1.9-4 3.5-2.8zM89 384l.9.2.7.6.3.8v.8l-.3.8-.7.6-.9.2-.9-.2-.7-.6-.3-.8v-.8l.3-.8.7-.6zM423 532l3 .7 2.5 1.9 1.3 2.8v3.2l-1.3 2.8-2.5 1.9-3 .7-3-.7-2.5-1.9-1.3-2.8v-3.2l1.3-2.8 2.5-1.9zM46 175l4.3 1 3.5 2.8 1.9 4v4.4l-1.9 4-3.5 2.8-4.3 1-4.3-1-3.5-2.8-1.9-4v-4.4l1.9-4 3.5-2.8zM288 233l4.3 1 3.5 2.8 1.9 4v4.4l-1.9 4-3.5 2.8-4.3 1-4.3-1-3.5-2.8-1.9-4v-4.4l1.9-4 3.5-2.8zM38 490l5.2 1.2 4.2 3.3 2.3 4.8v5.4l-2.3 4.8-4.2 3.3L38 514l-5.2-1.2-4.2-3.3-2.3-4.8v-5.4l2.3-4.8 4.2-3.3zM723 535l5.2 1.2 4.2 3.3 2.3 4.8v5.4l-2.3 4.8-4.2 3.3-5.2 1.2-5.2-1.2-4.2-3.3-2.3-4.8v-5.4l2.3-4.8 4.2-3.3zM119 233l.4.1.4.3.2.4v.4l-.2.4-.4.3-.4.1-.4-.1-.4-.3-.2-.4v-.4l.2-.4.4-.3zM107 56l3.5.8 2.8 2.2 1.5 3.2v3.6l-1.5 3.2-2.8 2.2-3.5.8-3.5-.8-2.8-2.2-1.5-3.2v-3.6l1.5-3.2 2.8-2.2zM744 484l4.3 1 3.5 2.8 1.9 4v4.4l-1.9 4-3.5 2.8-4.3 1-4.3-1-3.5-2.8-1.9-4v-4.4l1.9-4 3.5-2.8zM123 76l4.8 1.1 3.8 3 2.1 4.5v4.8l-2.1 4.5-3.8 3L123 98l-4.8-1.1-3.8-3-2.1-4.5v-4.8l2.1-4.5 3.8-3zM638 383l4.3 1 3.5 2.8 1.9 4v4.4l-1.9 4-3.5 2.8-4.3 1-4.3-1-3.5-2.8-1.9-4v-4.4l1.9-4 3.5-2.8zM477 120l5.2 1.2 4.2 3.3 2.3 4.8v5.4l-2.3 4.8-4.2 3.3-5.2 1.2-5.2-1.2-4.2-3.3-2.3-4.8v-5.4l2.3-4.8 4.2-3.3z" fill="#297EA6"/></svg>