<svg width="900" height="600" xmlns="http://www.w3.org/2000/svg"><path fill="#001829" d="M0 0h900v600H0z"/><path d="M249 488.9l11.4 19.7h-22.8zM453 34l.9 1.5h-1.8zM313 172l7.8 13.5h-15.6zM5 177l4.3 7.5H.7zM215 569l3.5 6h-7zM733 279l10.4 18h-20.8zM254 381l5.2 9h-10.4zM253 577l.9 1.5h-1.8zM605 149l6.1 10.5h-12.2zM206 85l6.9 12h-13.8zM569 448l6.9 12h-13.8zM351 254l6.9 12h-13.8zM659 300l6.1 10.5h-12.2zM528 326l5.2 9h-10.4zM710 71l1.7 3h-3.4zM437 576l10.4 18h-20.8zM876 160l.9 1.5h-1.8zM591 352l6.1 10.5h-12.2zM489 59l6.1 10.5h-12.2zM760 516l6.1 10.5h-12.2zM544 477l7.8 13.5h-15.6zM61 66l3.5 6h-7zM744 114l3.5 6h-7zM704 586l1.7 3h-3.4zM809 244l.9 1.5h-1.8zM501 164l7.8 13.5h-15.6zM35 127l4.3 7.5h-8.6zM708 472l7.8 13.5h-15.6zM813 504l6.1 10.5h-12.2zM289 53l8.7 15h-17.4zM25 517l3.5 6h-7zM513 192l5.2 9h-10.4zM377-7l10.4 18h-20.8zM460 144l7.8 13.5h-15.6zM501 281l1.7 3h-3.4zM786 344l2.6 4.5h-5.2zM265 23l8.7 15h-17.4zM142 110l5.2 9h-10.4z" fill="#297EA6"/></svg>