<svg xmlns="http://www.w3.org/2000/svg" viewBox="0 0 480 480"><path d="M319.812 370.152c-27.167-23.318-15.841-48.016-39.96-64.077-11.677-7.71-14.449-2.072-60.527-10.32-14.856-2.676-33.18-6.041-54.372-12.989-10.155-3.3-32.69-10.981-57.656-26.187-33.668-20.55-63.9-39.128-63.16-64.746.676-21.495 22.969-40.907 43.437-47.098 13.625-4.102 30.347-.384 63.098 7.256 40.505 9.446 51.186 16.32 66.162 9.827 14.772-6.403 11.092-16.018 26.601-28.59 25.114-20.439 45.441-3.904 104.972-17.133 25.973-5.75 36.558-12.142 43.949-5.549 10.008 8.92 6.055 34.322-5.106 51.979-19.696 31.25-53.785 25.36-58.537 44.87-4.441 18.205 24.094 27.136 52.77 77.437 25.15 44.08 19.61 65.93 17.784 71.839-1.1 3.645-6.565 21.513-22.478 28.655-25.198 11.361-55.368-13.824-56.977-15.174z" fill="#e3bb51"/></svg>