<svg viewBox="0 0 480 480" xmlns="http://www.w3.org/2000/svg"><path fill="#F8D36D" d="M333.906 356q-24.83 16.37-49.816 59.37-24.985 42.999-67.285 38.182t-71.26-35.644q-28.96-30.827-32.09-70.658-3.13-39.83-45.364-64.173-42.233-24.342-33.71-64.837 8.524-40.495 30.467-73.646 21.943-33.152 51.163-60.196 29.22-27.045 69.271-19.547 40.05 7.498 73.528 8.828 33.477 1.33 76.112 1.859 42.635.528 66.848 33.9 24.214 33.372 5.89 75.435-18.324 42.062 7.73 80.241 26.054 38.18-15.3 56.349-41.353 18.17-66.184 34.538z"/></svg>