<svg xmlns="http://www.w3.org/2000/svg" width="900" height="600"><path fill="#001829" d="M0 0h900v600H0z"/><path fill="#297EA6" d="m249 488.9 11.4 19.7h-22.8zM453 34l.9 1.5h-1.8zM313 172l7.8 13.5h-15.6zM5 177l4.3 7.5H.7zm210 392 3.5 6h-7zm518-290 10.4 18h-20.8zM254 381l5.2 9h-10.4zm-1 196 .9 1.5h-1.8zm352-428 6.1 10.5h-12.2zM206 85l6.9 12h-13.8zm363 363 6.9 12h-13.8zM351 254l6.9 12h-13.8zm308 46 6.1 10.5h-12.2zm-131 26 5.2 9h-10.4zM710 71l1.7 3h-3.4zM437 576l10.4 18h-20.8zm439-416 .9 1.5h-1.8zM591 352l6.1 10.5h-12.2zM489 59l6.1 10.5h-12.2zm271 457 6.1 10.5h-12.2zm-216-39 7.8 13.5h-15.6zM61 66l3.5 6h-7zm683 48 3.5 6h-7zm-40 472 1.7 3h-3.4zm105-342 .9 1.5h-1.8zm-308-80 7.8 13.5h-15.6zM35 127l4.3 7.5h-8.6zm673 345 7.8 13.5h-15.6zm105 32 6.1 10.5h-12.2zM289 53l8.7 15h-17.4zM25 517l3.5 6h-7zm488-325 5.2 9h-10.4zM377-7l10.4 18h-20.8zm83 151 7.8 13.5h-15.6zm41 137 1.7 3h-3.4zm285 63 2.6 4.5h-5.2zM265 23l8.7 15h-17.4zm-123 87 5.2 9h-10.4z"/></svg>