<svg xmlns="http://www.w3.org/2000/svg" viewBox="0 0 480 480"><defs><linearGradient id="a" x1="0%" x2="100%" y1="50%" y2="50%" gradientTransform="rotate(60)"><stop offset="0%" stop-color="#FFF"/><stop offset="25%" stop-color="#FFF" stop-opacity=".5"/><stop offset="50%" stop-color="#FFF"/><stop offset="75%" stop-color="#FFF" stop-opacity=".5"/><stop offset="100%" stop-color="#FFF"/></linearGradient><pattern id="b" width="20" height="20" x="11" y="15" patternUnits="userSpaceOnUse"><circle cx="3" cy="3" r="2.5" fill="#fff" fill-opacity=".7"/></pattern></defs><path fill="#F8D36D" d="M333.906 356q-24.83 16.37-49.816 59.37-24.985 42.999-67.285 38.182t-71.26-35.644-32.09-70.658q-3.13-39.83-45.364-64.173-42.233-24.342-33.71-64.837 8.524-40.495 30.467-73.646t51.163-60.196 69.271-19.547q40.05 7.498 73.528 8.828 33.477 1.33 76.112 1.859t66.848 33.9q24.214 33.372 5.89 75.435-18.324 42.062 7.73 80.241t-15.3 56.349q-41.353 18.17-66.184 34.538z"/><rect width="30" height="30" x="265" y="185" fill="url(#a)" stroke="#FFF" rx="5" ry="5"><animate attributeName="opacity" dur="2s" repeatCount="indefinite" values="1;0.5;1"/></rect><rect width="30" height="30" x="280" y="200" fill="#FFF" filter="drop-shadow(0px 5px 8px #FFFFFF)" rx="5" ry="5"><animateTransform attributeName="transform" dur="3s" from="0 295 215" repeatCount="indefinite" to="360 295 215" type="rotate"/><animate attributeName="width" dur="3s" repeatCount="indefinite" values="30;32;30"/><animate attributeName="height" dur="3s" repeatCount="indefinite" values="30;32;30"/></rect><path fill="url(#b)" d="M333.91 356q-24.84 16.37-49.82 59.37t-67.29 38.18q-42.3-4.82-71.26-35.64c-5.61-6-19.36-20.47-26.2-42.33a55.3 55.3 0 0 1-2.62-12.24c-.15-1.89-1.33-19.41 9.22-33.22 4.43-5.79 8.36-7.57 25.31-16.31 32.82-16.91 9.22-5.67 46.13-24.19 20.53-10.3 30.92-15.49 36.71-17.6 12.91-4.72 15.8-4.2 41.47-10.52 24.14-5.94 25.32-7.31 53-14.23 36.08-9 42-8.74 47.1-7.71 4.47.9 26.14 5.75 39.7 25.55 4 5.84 13.48 19.7 9.05 33.73-3.34 10.56-12.94 16.07-24.35 22.62-11.93 6.86-17.88 7-30 12A133.3 133.3 0 0 0 333.91 356"/></svg>